<svg width="32" height="24" viewBox="0 0 32 24" fill="none" xmlns="http://www.w3.org/2000/svg">
<g clip-path="url(#clip0_12_41)">
<path d="M27.072 26L21.4055 20.3234L27.072 26ZM24.5457 12.7368C24.5457 15.5844 23.4145 18.3154 21.401 20.3289C19.3874 22.3425 16.6565 23.4737 13.8089 23.4737C10.9613 23.4737 8.23032 22.3425 6.21677 20.3289C4.20322 18.3154 3.07202 15.5844 3.07202 12.7368C3.07202 9.88925 4.20322 7.1583 6.21677 5.14475C8.23032 3.1312 10.9613 2 13.8089 2C16.6565 2 19.3874 3.1312 21.401 5.14475C23.4145 7.1583 24.5457 9.88925 24.5457 12.7368V12.7368Z" stroke="white" stroke-width="2" stroke-linecap="round"/>
</g>
<defs>
<clipPath id="clip0_12_41">
<rect width="31.2718" height="24" fill="white" transform="translate(0.466064)"/>
</clipPath>
</defs>
</svg>
